<svg id="directv" xmlns="http://www.w3.org/2000/svg" viewBox="0 0 490.62 288"><defs><style>.cls-2{fill:#337ace}</style></defs><path id="Clear_space" data-name="Clear space" fill="none" d="M0 0h490.62v288H0z"/><path class="cls-2" d="M310.91 146.59c-1.5 6.81-6 10.82-12.66 10.82a12.17 12.17 0 01-10.89-5.85c-2.54-4-2.28-13.06-2.28-15.84s-.07-15.48.43-17.38c-5.93-.25-11.51-.42-15.17-.52-.53 2.31-.4 19.89-.4 19.89 0 8.52.66 16.2 5.48 22.37a28.68 28.68 0 0022.8 10.62c16 0 26.2-10.82 28.07-24.11z"/><path d="M287.32 112.52c.52-.88 3.3-6.09 11-6.09a11.91 11.91 0 0111.68 7.95c5.34.61 10.82 1.38 16.22 2.35-2-13-11.77-23.59-27.9-23.59a29.55 29.55 0 00-15.31 4c-6.5 4.1-9.93 9-11.6 14.92 3.73 0 9.28.12 15.91.46zM92.86 101c-4.92-5.15-12.12-7.28-21.15-7.28H45.16V151q7.2-2.83 14.9-5.52V107h11.4c4.92 0 8.63 1.71 11 4.72 2.88 3.63 3.16 6.7 3.16 25.67 4.87-1.39 14.95-4 14.95-4 0-18.39.01-24.28-7.71-32.39z"/><path class="cls-2" d="M185 137.17A20.47 20.47 0 00198.16 123a546.66 546.66 0 00-53.9 10.78v36.28h14.89v-30.43h10.72l14.88 30.44H202zM261.73 156.62h-35.24v-18.38h30.1v-13.36h-30.1v-5.24q-7.35.66-14.89 1.57v48.85h50.24v-13.29h-.11zM72.71 170.07c7.93 0 15.11-2.27 20.15-7.31 4.47-4.47 6.37-9.63 7.17-15.18a325.14 325.14 0 00-48.56 22.49zM114.35 170.06h14.89v-32.15q-7.62 2.22-14.89 4.63z"/><path d="M114.35 130.09q7.29-1.67 14.89-3.18V93.78h-14.89zM261.73 93.78H211.6v21.07q7.47-.69 14.89-1.22v-6.57h35.35V93.78z"/><path class="cls-2" d="M428.77 170.06h-11.15l-25.17-76.28h15.42l15.33 49.7 15.32-49.7h15.53l-25.28 76.28zM365.19 107.06v63H350.3v-63h-19.92V93.78h54.74v13.28h-19.93z"/><path d="M159.15 107.06h14c6.36 0 10.82 3.7 10.82 10.86l14.86-1.78c-.46-12.3-9.58-22.36-24.7-22.36h-29.9v30.28q7.38-1.32 14.89-2.53z"/></svg>